<?xml version="1.0" encoding="UTF-8"?>
<!DOCTYPE svg PUBLIC "-//W3C//DTD SVG 1.1//EN" "http://www.w3.org/Graphics/SVG/1.1/DTD/svg11.dtd">
<!-- Creator: CorelDRAW 2019 (64 Bit) -->
<svg xmlns="http://www.w3.org/2000/svg" xml:space="preserve" width="150mm" height="150mm" version="1.1" style="shape-rendering:geometricPrecision; text-rendering:geometricPrecision; image-rendering:optimizeQuality; fill-rule:evenodd; clip-rule:evenodd"
viewBox="0 0 15000 15000"
 xmlns:xlink="http://www.w3.org/1999/xlink">
 <defs>
  <style type="text/css">
   <![CDATA[
    .fil0 {fill:#0098DA;fill-rule:nonzero}
   ]]>
  </style>
 </defs>
 <g id="Camada_x0020_1">
  <metadata id="CorelCorpID_0Corel-Layer"/>
  <g>
   <path class="fil0" d="M3459.78 2213.52l6.87 0.18 6.66 0.54 6.45 0.87 6.23 1.21 6.03 1.51 5.81 1.82 5.6 2.1 5.39 2.37 5.17 2.62 4.95 2.87 4.75 3.1 4.52 3.31 4.31 3.52 4.1 3.7 3.88 3.88 3.65 4.03 3.45 4.18 3.22 4.31 3 4.43 2.79 4.54 2.56 4.62 2.35 4.7 2.12 4.76 1.9 4.81 1.68 4.84 1.46 4.86 1.24 4.87 1.01 4.86 0.79 4.84 0.56 4.8 0.34 4.76 0.11 4.69 0 0 -0.11 4.69 -0.34 4.76 -0.56 4.81 -0.79 4.84 -1.01 4.87 -1.24 4.88 -1.46 4.87 -1.68 4.85 -1.9 4.82 -2.12 4.77 -2.35 4.71 -2.56 4.64 -2.79 4.55 -3 4.44 -3.22 4.32 -3.44 4.2 -3.66 4.05 -3.88 3.89 -4.1 3.71 -4.31 3.53 -4.52 3.33 -4.75 3.11 -4.95 2.88 -5.17 2.64 -5.39 2.38 -5.6 2.1 -5.81 1.83 -6.03 1.52 -6.23 1.21 -6.45 0.88 -6.66 0.54 -6.87 0.18 0 0 4.1 -4.23 3.85 -4.23 3.6 -4.22 3.35 -4.21 3.13 -4.19 2.9 -4.17 2.69 -4.14 2.48 -4.12 2.29 -4.08 2.09 -4.05 1.91 -4 1.74 -3.96 1.57 -3.91 1.41 -3.85 1.27 -3.8 1.13 -3.73 0.99 -3.67 0.87 -3.6 0.75 -3.52 0.65 -3.45 0.55 -3.36 0.45 -3.27 0.38 -3.18 0.29 -3.09 0.24 -2.99 0.17 -2.88 0.13 -2.78 0.08 -2.67 0.05 -2.54 0.03 -2.43 0.01 -2.31 0 -2.17 0 0 0 -2.18 -0.01 -2.3 -0.03 -2.43 -0.05 -2.54 -0.08 -2.67 -0.13 -2.77 -0.17 -2.89 -0.24 -2.98 -0.29 -3.09 -0.38 -3.18 -0.45 -3.27 -0.55 -3.36 -0.65 -3.44 -0.75 -3.52 -0.87 -3.59 -0.99 -3.66 -1.13 -3.73 -1.27 -3.78 -1.41 -3.85 -1.57 -3.9 -1.74 -3.94 -1.91 -4 -2.09 -4.03 -2.29 -4.06 -2.48 -4.1 -2.69 -4.13 -2.9 -4.15 -3.13 -4.17 -3.35 -4.19 -3.6 -4.19 -3.85 -4.21 -4.1 -4.2 0 0zm-75.3 37.65l3.53 0.1 3.52 0.3 3.51 0.49 3.49 0.68 3.45 0.86 3.43 1.04 3.38 1.2 3.34 1.38 3.28 1.54 3.22 1.69 3.15 1.84 3.07 1.99 2.99 2.12 2.9 2.27 2.81 2.39 2.7 2.52 2.59 2.63 2.47 2.75 2.35 2.86 2.22 2.96 2.08 3.06 1.94 3.15 1.78 3.24 1.63 3.33 1.46 3.39 1.29 3.48 1.11 3.53 0.92 3.6 0.73 3.66 0.53 3.71 0.32 3.75 0.11 3.79 0 0 -0.11 3.79 -0.32 3.75 -0.53 3.71 -0.73 3.66 -0.92 3.6 -1.11 3.53 -1.29 3.48 -1.46 3.39 -1.63 3.33 -1.78 3.24 -1.94 3.15 -2.08 3.06 -2.22 2.96 -2.35 2.86 -2.47 2.75 -2.59 2.63 -2.7 2.52 -2.81 2.39 -2.9 2.26 -2.99 2.13 -3.07 1.99 -3.15 1.84 -3.22 1.69 -3.28 1.54 -3.34 1.38 -3.38 1.2 -3.43 1.04 -3.45 0.86 -3.49 0.68 -3.51 0.49 -3.52 0.3 -3.53 0.1 0 0 -10.59 -0.22 -10.56 -0.62 -10.52 -1.02 -10.45 -1.37 -10.37 -1.7 -10.27 -2.01 -10.14 -2.27 -10 -2.53 -9.83 -2.75 -9.64 -2.94 -9.44 -3.11 -9.21 -3.24 -8.96 -3.35 -8.69 -3.44 -8.4 -3.49 -8.09 -3.51 -7.76 -3.52 -7.4 -3.49 -7.04 -3.44 -6.64 -3.35 -6.23 -3.24 -5.8 -3.11 -5.34 -2.94 -4.86 -2.75 -4.37 -2.52 -3.86 -2.28 -3.32 -2.01 -2.76 -1.7 -2.18 -1.37 -1.59 -1.02 -0.96 -0.62 -0.33 -0.22 0 0 0.33 -0.22 0.96 -0.63 1.59 -1.01 2.18 -1.38 2.76 -1.71 3.32 -2.01 3.86 -2.29 4.37 -2.54 4.86 -2.76 5.34 -2.95 5.8 -3.12 6.23 -3.25 6.64 -3.37 7.04 -3.45 7.4 -3.5 7.76 -3.53 8.09 -3.54 8.4 -3.5 8.69 -3.45 8.96 -3.37 9.21 -3.25 9.44 -3.12 9.64 -2.95 9.83 -2.76 10 -2.54 10.14 -2.29 10.27 -2.01 10.37 -1.71 10.45 -1.38 10.52 -1.01 10.56 -0.63 10.59 -0.22 0 0zm187.95 -75.6l9.18 0.24 8.9 0.72 8.62 1.17 8.33 1.62 8.05 2.02 7.76 2.43 7.48 2.81 7.19 3.17 6.9 3.52 6.62 3.84 6.33 4.15 6.04 4.43 5.75 4.71 5.47 4.95 5.17 5.18 4.88 5.4 4.59 5.59 4.3 5.77 4 5.93 3.71 6.06 3.42 6.18 3.13 6.29 2.83 6.36 2.53 6.43 2.24 6.48 1.94 6.5 1.64 6.5 1.35 6.5 1.05 6.47 0.75 6.41 0.45 6.36 0.15 6.26 0 0 -0.15 6.28 -0.45 6.36 -0.75 6.44 -1.05 6.48 -1.35 6.51 -1.64 6.52 -1.94 6.51 -2.24 6.49 -2.53 6.44 -2.83 6.38 -3.13 6.29 -3.42 6.2 -3.71 6.07 -4 5.94 -4.3 5.78 -4.59 5.6 -4.88 5.41 -5.17 5.2 -5.47 4.96 -5.75 4.71 -6.04 4.45 -6.33 4.15 -6.62 3.85 -6.9 3.52 -7.19 3.18 -7.48 2.81 -7.76 2.44 -8.05 2.03 -8.33 1.61 -8.62 1.18 -8.9 0.72 -9.18 0.24 0 0 5.48 -5.64 5.13 -5.63 4.81 -5.63 4.48 -5.6 4.18 -5.59 3.88 -5.56 3.59 -5.53 3.31 -5.49 3.05 -5.45 2.8 -5.39 2.55 -5.35 2.32 -5.28 2.1 -5.22 1.89 -5.15 1.69 -5.07 1.5 -4.99 1.33 -4.9 1.16 -4.81 1.01 -4.71 0.86 -4.61 0.73 -4.49 0.61 -4.38 0.5 -4.27 0.4 -4.13 0.31 -4 0.23 -3.87 0.17 -3.72 0.11 -3.58 0.07 -3.42 0.04 -3.26 0.01 -3.1 0 -2.93 0 0 0 -2.91 -0.01 -3.09 -0.04 -3.25 -0.07 -3.4 -0.11 -3.57 -0.17 -3.71 -0.23 -3.85 -0.31 -3.99 -0.4 -4.12 -0.5 -4.25 -0.61 -4.37 -0.73 -4.48 -0.86 -4.6 -1.01 -4.7 -1.16 -4.79 -1.33 -4.9 -1.5 -4.97 -1.69 -5.07 -1.89 -5.13 -2.1 -5.21 -2.32 -5.28 -2.55 -5.33 -2.8 -5.4 -3.05 -5.44 -3.31 -5.48 -3.59 -5.52 -3.88 -5.56 -4.18 -5.58 -4.48 -5.61 -4.81 -5.62 -5.13 -5.63 -5.48 -5.64 0 0zm150.75 -37.35l11.47 0.3 11.11 0.9 10.76 1.47 10.4 2.01 10.05 2.54 9.69 3.03 9.33 3.51 8.98 3.97 8.61 4.39 8.26 4.8 7.9 5.18 7.54 5.54 7.17 5.88 6.82 6.19 6.45 6.49 6.08 6.74 5.73 6.99 5.36 7.21 4.99 7.41 4.63 7.58 4.26 7.73 3.9 7.86 3.53 7.96 3.15 8.03 2.79 8.1 2.42 8.13 2.05 8.14 1.68 8.12 1.31 8.09 0.93 8.03 0.56 7.94 0.19 7.84 0 0 -0.19 7.84 -0.56 7.94 -0.93 8.03 -1.31 8.09 -1.68 8.12 -2.05 8.14 -2.42 8.13 -2.78 8.1 -3.16 8.03 -3.53 7.96 -3.9 7.86 -4.26 7.73 -4.63 7.58 -4.99 7.4 -5.36 7.22 -5.72 6.99 -6.09 6.74 -6.45 6.48 -6.82 6.2 -7.17 5.88 -7.54 5.54 -7.9 5.18 -8.26 4.8 -8.61 4.39 -8.98 3.97 -9.33 3.51 -9.69 3.03 -10.05 2.54 -10.4 2.01 -10.76 1.47 -11.11 0.9 -11.47 0.3 0 0 6.83 -7.04 6.4 -7.04 5.99 -7.03 5.59 -7 5.21 -6.98 4.83 -6.95 4.48 -6.9 4.14 -6.86 3.81 -6.8 3.49 -6.74 3.18 -6.68 2.9 -6.59 2.62 -6.52 2.37 -6.43 2.11 -6.33 1.88 -6.22 1.66 -6.12 1.46 -6 1.26 -5.88 1.08 -5.74 0.92 -5.61 0.76 -5.47 0.63 -5.31 0.5 -5.15 0.4 -4.99 0.29 -4.82 0.21 -4.64 0.15 -4.45 0.08 -4.26 0.05 -4.06 0.02 -3.85 0 -3.64 0 0 0 -3.64 -0.02 -3.85 -0.05 -4.06 -0.08 -4.25 -0.15 -4.45 -0.21 -4.64 -0.29 -4.81 -0.4 -4.99 -0.5 -5.15 -0.63 -5.3 -0.76 -5.46 -0.92 -5.61 -1.08 -5.74 -1.26 -5.87 -1.46 -6 -1.66 -6.11 -1.88 -6.23 -2.11 -6.32 -2.37 -6.43 -2.62 -6.51 -2.9 -6.6 -3.19 -6.67 -3.48 -6.74 -3.81 -6.81 -4.14 -6.86 -4.48 -6.91 -4.83 -6.95 -5.21 -6.98 -5.59 -7.02 -5.99 -7.03 -6.4 -7.05 -6.83 -7.06 0 0zm-36.9 150.75l0 75 -375 0 0 -75 375 0zm150 0l0 75 -75 0 0 -75 75 0zm450 0l0 75 -375 0 0 -75 375 0zm149.99 0l0 75 -74.99 0 0 -75 74.99 0zm450 0l0 75 -375 0 0 -75 375 0zm150 0l0 75 -75 0 0 -75 75 0zm450 0l0 75 -375 0 0 -75 375 0zm150 0l0 75 -75 0 0 -75 75 0zm450 0l0 75 -375 0 0 -75 375 0zm150 0l0 75 -75 0 0 -75 75 0zm450 0l0 75 -375 0 0 -75 375 0zm150 0l0 75 -75 0 0 -75 75 0zm450 0l0 75 -375 0 0 -75 375 0zm150 0l0 75 -75 0 0 -75 75 0zm450 0l0 75 -375 0 0 -75 375 0zm150 0l0 75 -75 0 0 -75 75 0zm450 0l0 75 -375 0 0 -75 375 0zm150 0l0 75 -75 0 0 -75 75 0zm450 0l0 75 -375 0 0 -75 375 0zm150 0l0 75 -75 0 0 -75 75 0zm450 0l0 75 -375 0 0 -75 375 0zm150 0l0 75 -75 0 0 -75 75 0zm450 0l0 75 -375 0 0 -75 375 0zm150 0l0 75 -75 0 0 -75 75 0zm450 0l0 75 -375 0 0 -75 375 0zm150 0l0 75 -75 0 0 -75 75 0zm450 0l0 75 -375 0 0 -75 375 0zm150 0l0 75 -75 0 0 -75 75 0zm-98.99 -75.45l0 0 -4.1 4.2 -3.85 4.21 -3.6 4.19 -3.35 4.19 -3.13 4.17 -2.9 4.15 -2.69 4.13 -2.48 4.1 -2.29 4.06 -2.09 4.03 -1.91 4 -1.74 3.94 -1.57 3.9 -1.41 3.85 -1.27 3.78 -1.13 3.73 -0.99 3.66 -0.87 3.59 -0.75 3.52 -0.65 3.44 -0.55 3.36 -0.45 3.27 -0.38 3.18 -0.29 3.09 -0.24 2.98 -0.17 2.89 -0.13 2.77 -0.08 2.67 -0.05 2.54 -0.03 2.43 -0.01 2.3 0 2.18 0 0 0 2.18 0.01 2.3 0.03 2.43 0.05 2.54 0.08 2.67 0.13 2.78 0.17 2.88 0.24 2.99 0.29 3.09 0.38 3.18 0.45 3.27 0.55 3.36 0.65 3.45 0.75 3.52 0.87 3.6 0.99 3.67 1.13 3.73 1.27 3.8 1.41 3.85 1.57 3.91 1.74 3.96 1.91 4 2.09 4.05 2.29 4.08 2.48 4.12 2.69 4.14 2.9 4.17 3.13 4.19 3.35 4.21 3.6 4.22 3.85 4.23 4.1 4.23 0 0 -6.87 -0.18 -6.66 -0.54 -6.45 -0.88 -6.23 -1.21 -6.03 -1.52 -5.81 -1.83 -5.6 -2.1 -5.39 -2.38 -5.17 -2.64 -4.95 -2.88 -4.75 -3.11 -4.52 -3.33 -4.31 -3.53 -4.1 -3.71 -3.88 -3.89 -3.66 -4.05 -3.44 -4.2 -3.22 -4.32 -3 -4.44 -2.79 -4.55 -2.56 -4.64 -2.35 -4.71 -2.12 -4.77 -1.9 -4.82 -1.68 -4.85 -1.46 -4.87 -1.24 -4.88 -1.01 -4.87 -0.79 -4.84 -0.56 -4.81 -0.34 -4.76 -0.11 -4.69 0 0 0.11 -4.69 0.34 -4.76 0.56 -4.8 0.79 -4.84 1.01 -4.86 1.24 -4.87 1.46 -4.86 1.68 -4.84 1.9 -4.81 2.12 -4.76 2.35 -4.7 2.56 -4.62 2.79 -4.54 3 -4.43 3.22 -4.31 3.44 -4.18 3.66 -4.03 3.88 -3.88 4.1 -3.7 4.31 -3.52 4.52 -3.31 4.75 -3.1 4.95 -2.87 5.17 -2.62 5.39 -2.37 5.6 -2.1 5.81 -1.82 6.03 -1.51 6.23 -1.21 6.45 -0.87 6.66 -0.54 6.87 -0.18zm75.3 37.65l0 0 10.59 0.22 10.56 0.63 10.52 1.01 10.45 1.38 10.37 1.71 10.27 2.01 10.14 2.29 10 2.54 9.83 2.76 9.64 2.95 9.44 3.12 9.21 3.25 8.96 3.37 8.69 3.45 8.4 3.5 8.09 3.53 7.76 3.54 7.4 3.5 7.04 3.45 6.64 3.37 6.23 3.25 5.8 3.12 5.34 2.95 4.86 2.76 4.37 2.54 3.86 2.29 3.32 2.01 2.76 1.71 2.18 1.38 1.59 1.01 0.96 0.63 0.33 0.22 0 0 -0.33 0.22 -0.96 0.62 -1.59 1.02 -2.18 1.37 -2.76 1.7 -3.32 2.01 -3.86 2.27 -4.37 2.53 -4.86 2.75 -5.34 2.94 -5.8 3.11 -6.23 3.24 -6.64 3.35 -7.04 3.44 -7.4 3.49 -7.76 3.52 -8.09 3.51 -8.4 3.49 -8.69 3.44 -8.96 3.35 -9.21 3.24 -9.44 3.11 -9.64 2.94 -9.83 2.75 -10 2.53 -10.14 2.27 -10.27 2.01 -10.37 1.7 -10.45 1.37 -10.52 1.02 -10.56 0.62 -10.59 0.22 0 0 -3.53 -0.1 -3.52 -0.3 -3.51 -0.49 -3.49 -0.68 -3.45 -0.86 -3.43 -1.04 -3.38 -1.2 -3.34 -1.38 -3.28 -1.54 -3.22 -1.69 -3.15 -1.84 -3.07 -1.99 -2.99 -2.13 -2.9 -2.26 -2.81 -2.39 -2.7 -2.52 -2.59 -2.63 -2.47 -2.75 -2.35 -2.86 -2.22 -2.96 -2.08 -3.06 -1.94 -3.15 -1.78 -3.24 -1.63 -3.33 -1.46 -3.39 -1.29 -3.48 -1.11 -3.53 -0.92 -3.6 -0.73 -3.66 -0.53 -3.71 -0.32 -3.75 -0.11 -3.79 0 0 0.11 -3.79 0.32 -3.75 0.53 -3.71 0.73 -3.66 0.92 -3.6 1.11 -3.53 1.29 -3.48 1.46 -3.39 1.63 -3.33 1.78 -3.24 1.94 -3.15 2.08 -3.06 2.22 -2.96 2.35 -2.86 2.47 -2.75 2.59 -2.63 2.7 -2.52 2.81 -2.39 2.9 -2.26 2.99 -2.13 3.07 -1.99 3.15 -1.84 3.22 -1.69 3.28 -1.54 3.34 -1.38 3.38 -1.2 3.43 -1.04 3.45 -0.86 3.49 -0.68 3.51 -0.49 3.52 -0.3 3.53 -0.1zm-187.95 -75.6l0 0 -5.48 5.64 -5.13 5.63 -4.81 5.62 -4.48 5.61 -4.18 5.58 -3.88 5.56 -3.59 5.52 -3.31 5.48 -3.05 5.44 -2.8 5.4 -2.55 5.33 -2.32 5.28 -2.1 5.21 -1.89 5.13 -1.69 5.07 -1.5 4.97 -1.33 4.9 -1.16 4.79 -1.01 4.7 -0.86 4.6 -0.73 4.48 -0.61 4.37 -0.5 4.25 -0.4 4.12 -0.31 3.99 -0.23 3.85 -0.17 3.71 -0.11 3.57 -0.07 3.4 -0.04 3.25 -0.01 3.09 0 2.91 0 0 0 2.93 0.01 3.1 0.04 3.26 0.07 3.42 0.11 3.58 0.17 3.72 0.23 3.87 0.31 4 0.4 4.13 0.5 4.27 0.61 4.38 0.73 4.49 0.86 4.61 1.01 4.71 1.16 4.81 1.33 4.9 1.5 4.99 1.69 5.07 1.89 5.15 2.1 5.22 2.32 5.28 2.55 5.35 2.8 5.39 3.05 5.45 3.31 5.49 3.59 5.53 3.88 5.56 4.18 5.59 4.48 5.6 4.81 5.63 5.13 5.63 5.48 5.64 0 0 -9.18 -0.24 -8.9 -0.72 -8.62 -1.18 -8.33 -1.61 -8.05 -2.03 -7.76 -2.44 -7.48 -2.81 -7.19 -3.18 -6.9 -3.52 -6.62 -3.85 -6.33 -4.15 -6.04 -4.45 -5.75 -4.71 -5.47 -4.96 -5.17 -5.2 -4.88 -5.41 -4.59 -5.6 -4.3 -5.78 -4 -5.94 -3.71 -6.07 -3.42 -6.2 -3.13 -6.29 -2.83 -6.38 -2.53 -6.44 -2.24 -6.49 -1.94 -6.51 -1.64 -6.52 -1.35 -6.51 -1.05 -6.48 -0.75 -6.44 -0.45 -6.36 -0.15 -6.28 0 0 0.15 -6.26 0.45 -6.36 0.75 -6.41 1.05 -6.47 1.35 -6.5 1.64 -6.5 1.94 -6.5 2.24 -6.48 2.53 -6.43 2.83 -6.36 3.13 -6.29 3.42 -6.18 3.71 -6.06 4 -5.93 4.3 -5.77 4.59 -5.59 4.88 -5.4 5.17 -5.18 5.47 -4.95 5.75 -4.71 6.04 -4.43 6.33 -4.15 6.62 -3.84 6.9 -3.52 7.19 -3.17 7.48 -2.81 7.76 -2.43 8.05 -2.02 8.33 -1.62 8.62 -1.17 8.9 -0.72 9.18 -0.24zm-150.75 -37.35l0 0 -6.83 7.06 -6.4 7.05 -5.99 7.03 -5.59 7.02 -5.21 6.98 -4.83 6.95 -4.48 6.91 -4.14 6.86 -3.81 6.81 -3.48 6.74 -3.19 6.67 -2.9 6.6 -2.62 6.51 -2.37 6.43 -2.11 6.33 -1.88 6.22 -1.66 6.11 -1.46 6 -1.26 5.87 -1.08 5.74 -0.92 5.61 -0.76 5.46 -0.63 5.3 -0.5 5.15 -0.4 4.99 -0.29 4.81 -0.21 4.64 -0.15 4.45 -0.08 4.25 -0.05 4.06 -0.02 3.85 0 3.64 0 0 0 3.64 0.02 3.85 0.05 4.06 0.08 4.26 0.15 4.45 0.21 4.64 0.29 4.82 0.4 4.99 0.5 5.15 0.63 5.31 0.76 5.47 0.92 5.61 1.08 5.74 1.26 5.88 1.46 6 1.66 6.12 1.88 6.22 2.11 6.33 2.37 6.43 2.62 6.52 2.9 6.59 3.19 6.68 3.48 6.74 3.81 6.8 4.14 6.86 4.48 6.9 4.83 6.95 5.21 6.98 5.59 7 5.99 7.03 6.4 7.04 6.83 7.04 0 0 -11.47 -0.3 -11.11 -0.9 -10.76 -1.47 -10.4 -2.01 -10.05 -2.54 -9.69 -3.03 -9.33 -3.51 -8.98 -3.97 -8.61 -4.39 -8.26 -4.8 -7.9 -5.18 -7.54 -5.54 -7.17 -5.88 -6.82 -6.19 -6.45 -6.49 -6.09 -6.74 -5.72 -6.99 -5.36 -7.21 -4.99 -7.41 -4.63 -7.58 -4.26 -7.73 -3.9 -7.86 -3.53 -7.96 -3.16 -8.03 -2.78 -8.1 -2.42 -8.13 -2.05 -8.14 -1.68 -8.12 -1.31 -8.09 -0.93 -8.03 -0.56 -7.94 -0.19 -7.84 0 0 0.19 -7.84 0.56 -7.94 0.93 -8.03 1.31 -8.09 1.68 -8.12 2.05 -8.14 2.42 -8.13 2.78 -8.1 3.16 -8.03 3.53 -7.96 3.9 -7.86 4.26 -7.73 4.63 -7.58 4.99 -7.41 5.36 -7.21 5.72 -6.99 6.09 -6.74 6.45 -6.49 6.82 -6.19 7.17 -5.88 7.54 -5.54 7.9 -5.18 8.26 -4.8 8.61 -4.39 8.98 -3.97 9.33 -3.51 9.69 -3.03 10.05 -2.54 10.4 -2.01 10.76 -1.47 11.11 -0.9 11.47 -0.3z"/>
  </g>
 </g>
</svg>
