<?xml version="1.0" encoding="UTF-8"?>
<!DOCTYPE svg PUBLIC "-//W3C//DTD SVG 1.1//EN" "http://www.w3.org/Graphics/SVG/1.1/DTD/svg11.dtd">
<!-- Creator: CorelDRAW 2019 (64 Bit) -->
<svg xmlns="http://www.w3.org/2000/svg" xml:space="preserve" width="150mm" height="150mm" version="1.1" style="shape-rendering:geometricPrecision; text-rendering:geometricPrecision; image-rendering:optimizeQuality; fill-rule:evenodd; clip-rule:evenodd"
viewBox="0 0 15000 15000"
 xmlns:xlink="http://www.w3.org/1999/xlink">
 <defs>
  <style type="text/css">
   <![CDATA[
    .str0 {stroke:#FEFEFE;stroke-width:20;stroke-miterlimit:22.9256}
    .str1 {stroke:#A9ABAE;stroke-width:20;stroke-miterlimit:22.9256}
    .fil2 {fill:#FEFEFE}
    .fil0 {fill:#A9ABAE}
    .fil1 {fill:#F7F7F8}
   ]]>
  </style>
 </defs>
 <g id="Camada_x0020_1">
  <metadata id="CorelCorpID_0Corel-Layer"/>
  <path class="fil0 str0" d="M14998.53 2301.37l0 10576.16c0,1168.17 -900,2123.94 -2000,2123.94l-11000 0c-1100,0 -2000,-955.77 -2000,-2123.94l0 -10576.16 15000 0zm-422.43 357.66l0 9980.47c0,1102.37 -849.31,2004.31 -1887.35,2004.31l-10380.44 0c-1038.04,0 -1887.35,-901.94 -1887.35,-2004.31l0 -9980.47 14155.14 0z"/>
  <path class="fil1 str1" d="M14576.1 2659.03l0 9980.47c0,1102.37 -849.31,2004.31 -1887.35,2004.31l-10380.44 0c-1038.04,0 -1887.35,-901.94 -1887.35,-2004.31l0 -9980.47 14155.14 0zm-7077.57 1854.54c2039.69,0 3693.18,1653.49 3693.18,3693.18 0,2039.69 -1653.49,3693.18 -3693.18,3693.18 -2039.69,0 -3693.18,-1653.49 -3693.18,-3693.18 0,-2039.69 1653.49,-3693.18 3693.18,-3693.18z"/>
  <rect class="fil2 str1" x="5285.38" y="12380.41" width="4426.31" height="1822.01" rx="358.35" ry="664.83"/>
 </g>
</svg>
